<?xml version="1.0" encoding="utf-8"?>
<!-- Generator: Adobe Illustrator 21.0.0, SVG Export Plug-In . SVG Version: 6.00 Build 0)  -->
<svg version="1.1" id="Layer_1" xmlns="http://www.w3.org/2000/svg" xmlns:xlink="http://www.w3.org/1999/xlink" x="0px" y="0px"
	 viewBox="0 0 512 512" style="enable-background:new 0 0 512 512;" xml:space="preserve">
<style type="text/css">
	.st0{fill:#820000;}
</style>
<path class="st0" d="M256.1,110.4c-8.6,0-16,3.2-22.3,9.4c-6.3,6.3-9.4,13.7-9.4,22.3c0,8.6,3.1,16,9.4,22.3
	c6.3,6.3,13.7,9.4,22.3,9.4c8.6,0,16-3.2,22.3-9.4c6.3-6.3,9.4-13.7,9.4-22.3c0-8.6-3.2-16-9.4-22.3
	C272.1,113.5,264.7,110.4,256.1,110.4z"/>
<rect x="228.4" y="191.1" class="st0" width="55.8" height="210.8"/>
<path class="st0" d="M256.1,44c-117,0-212.2,95.2-212.2,212.2c0,117,95.2,212.2,212.2,212.2c117,0,212.2-95.2,212.2-212.2
	C468.3,139.2,373.1,44,256.1,44z M256.1,456.7c-110.5,0-200.5-89.9-200.5-200.5c0-110.5,89.9-200.5,200.5-200.5
	c110.5,0,200.5,89.9,200.5,200.5C456.6,366.7,366.7,456.7,256.1,456.7z"/>
<path class="st0" d="M256.1,0C114.9,0-0.1,114.9-0.1,256.2c0,141.3,114.9,256.2,256.2,256.2c141.3,0,256.2-114.9,256.2-256.2
	C512.3,114.9,397.4,0,256.1,0z M256.1,496.7c-132.6,0-240.5-107.9-240.5-240.5S123.5,15.6,256.1,15.6s240.5,107.9,240.5,240.5
	S388.7,496.7,256.1,496.7z"/>
</svg>
