<?xml version="1.0" encoding="utf-8"?>
<!-- Generator: Adobe Illustrator 21.0.0, SVG Export Plug-In . SVG Version: 6.00 Build 0)  -->
<svg version="1.1" id="Layer_1" xmlns="http://www.w3.org/2000/svg" xmlns:xlink="http://www.w3.org/1999/xlink" x="0px" y="0px"
	 viewBox="0 0 512 430" style="enable-background:new 0 0 512 430;" xml:space="preserve">
<style type="text/css">
	.st0{fill:#820000;}
</style>
<g>
	<path class="st0" d="M349.9,280.1h-0.5l-2.8-36.1c-2.6-26.4-7.4-75.5-73.2-75.5h-46.2c-67.1,0-71.1,49.2-73.2,75.6l-3.4,42.7v0.3
		c0,24.2,14,36.5,29.7,48l4,2.9l-1,16.9l2.6,2.2c6.2,5.2,22.8,14,64.5,14c40.5,0,57.4-8.4,63.8-13.4l2.9-2.2l-1-17.2l4-3
		c16.4-12.1,30-24,30-48.2L349.9,280.1z M315.8,329.7l-6.6-91.8c0-1.7-1.4-3-3.1-3c-1.7,0-3,1.3-3,3l6.6,114.4
		c-5,3.9-20,11.9-59.5,11.9c-40.9,0-55.6-8.6-60-12.4c0.1-0.3,0.1-0.5,0.1-0.9l6.6-113.1c0-1.7-1.4-3-3-3s-3,1.3-3,3l-6.6,91.6
		c-16-11.8-26.9-22-26.9-42.4l3.4-42.4c2.6-31.8,9.1-69.3,66.3-69.3h46.2c57.2,0,63.4,39.3,66.3,69.3L343,287h0
		C343,307.6,332,317.8,315.8,329.7z"/>
	<path class="st0" d="M250.3,159.1c26.6,0,48.2-21.6,48.2-48.2c0-26.6-21.6-48.2-48.2-48.2c-26.6,0-48.2,21.6-48.2,48.2
		C202.1,137.5,223.7,159.1,250.3,159.1z M250.3,69.7c22.7,0,41.2,18.5,41.2,41.2c0,22.7-18.5,41.2-41.2,41.2
		c-22.7,0-41.2-18.5-41.2-41.2C209,88.2,227.5,69.7,250.3,69.7z"/>
	<circle class="st0" cx="249.8" cy="218.7" r="4.7"/>
	<circle class="st0" cx="234.3" cy="214" r="4.7"/>
	<circle class="st0" cx="265" cy="214" r="4.7"/>
	<circle class="st0" cx="274.3" cy="202.2" r="4.7"/>
	<circle class="st0" cx="280.3" cy="188.6" r="4.7"/>
	<circle class="st0" cx="224.9" cy="202.2" r="4.7"/>
	<circle class="st0" cx="220.2" cy="188.6" r="4.7"/>
	<path class="st0" d="M505.1,243.6c-2.6-26.4-7.4-75.5-73.2-75.5h-46.2c-21.7,0-36.7,5.2-47.3,13.1c1.6,1.9,3,3.8,4.4,5.8
		c9.6-7.2,23.1-11.9,43-11.9h8.1c1.1,3.4,3.6,9.6,6.7,14.6c-0.1,0.3-0.4,0.5-0.4,0.8l-10.1,147.2c-0.1,1.1,0.4,2.1,1.2,2.8
		l15.4,13.4c0.6,0.6,1.4,0.8,2.2,0.8s1.6-0.3,2.2-0.8l15.4-13.4c0.8-0.7,1.2-1.7,1.2-2.8l-10-148.1c1.7-3.4,4.6-9.7,6.1-14.6h8.1
		c57.2,0,63.4,39.3,66.3,69.3l3.3,42.4h0c0,20.5-11.1,30.8-27.2,42.6l-6.6-91.8c0-1.7-1.4-3-3.1-3c-1.7,0-3,1.3-3,3l6.6,114.4
		c-5,3.9-20,11.9-59.5,11.9c-40.9,0-55.6-8.6-60-12.4c0.1-0.3,0.1-0.5,0.1-0.9l1.5-26.2c-3.1,4.1-6.6,7.8-10.4,11.2l2.7,2l-1,16.9
		l2.6,2.2c6.2,5.2,22.8,14,64.5,14c40.5,0,57.4-8.4,63.8-13.4l2.9-2.2l-1-17.2l4-3c16.4-12.1,30-24,30-48.2L505.1,243.6z
		 M416.6,175.1c-1.5,4-3.8,8.9-5.3,12l-2,0.2l-2.4-0.1c-2.3-3.2-4.4-8.3-5.9-12.1H416.6z M420.6,336.5l-11.9,10.3l-11.9-10.3
		l9.8-142.4l2.6,0.1c0,0,0.1,0,0.1,0c0.1,0,0.2,0,0.3,0l1.3-0.1L420.6,336.5z"/>
	<path class="st0" d="M165.9,352.8c-5.1,4-20.4,12.2-60.6,12.2c-41.7,0-56.6-8.8-61.1-12.6c0.1-0.3,0.2-0.5,0.2-0.9l6.8-115.1
		c0-1.7-1.4-3.1-3.1-3.1c-1.7,0-3.1,1.4-3.1,3.1l-1.4,19H13.3l1-12.1c2.6-31.5,9.3-68.1,63.1-70.1c3.2,12.8,14.4,22.3,27.9,22.3
		c13.5,0,24.6-9.4,27.9-22.2c12.2,0.5,21.6,3,29.5,6.7c1.8-2,3.7-3.9,5.9-5.8c-9.9-5.2-22.8-8.4-39.7-8.4h-47
		c-68.2,0-72.3,50.1-74.5,77l-3.5,43.4v0.3c0,24.6,14.3,37.2,30.2,48.9l4,3l-1,17.2l2.6,2.3c6.3,5.3,23.2,14.3,65.6,14.3
		c41,0,58.2-8.4,64.8-13.6l0.9-14.3c-1.9-1.5-3.9-3-5.8-4.5L165.9,352.8z M127.6,172.8c-2.9,9.8-11.8,16.8-22.3,16.8
		c-10.5,0-19.4-7-22.3-16.8H127.6z M38.2,329.6c-16.3-12-27.3-22.4-27.3-43.2l1.9-24.3h30.3L38.2,329.6z"/>
	<path class="st0" d="M408.8,158.8c26.6,0,48.2-21.6,48.2-48.2c0-26.6-21.6-48.2-48.2-48.2c-26.6,0-48.2,21.6-48.2,48.2
		C360.6,137.2,382.2,158.8,408.8,158.8z M408.8,69.4c22.7,0,41.2,18.5,41.2,41.2c0,22.7-18.5,41.2-41.2,41.2
		c-22.7,0-41.2-18.5-41.2-41.2C367.5,87.9,386,69.4,408.8,69.4z"/>
	<path class="st0" d="M100.6,104.7c0-0.4-0.2-0.8-0.2-1.2c0.4-1.7,2.1-3.1,4.5-3.1c0.2,0,0.3-0.1,0.4-0.2c0.2,0,0.3,0.2,0.4,0.2
		c2.4,0,4.2,1.4,4.5,3.2c0,0.4-0.2,0.7-0.2,1.1c0,8.6,7,15.6,15.6,15.6c8.6,0,15.6-7,15.6-15.6s-7-15.6-15.6-15.6
		c-6.1,0-11.2,3.6-13.8,8.6c-1.7-1.3-3.8-2.1-6.2-2.1c-0.2,0-0.3,0.1-0.4,0.2c-0.2,0-0.3-0.2-0.4-0.2c-2.4,0-4.4,0.8-6.1,2.1
		c-2.6-5-7.7-8.6-13.8-8.6c-8.6,0-15.6,7-15.6,15.6s7,15.6,15.6,15.6C93.6,120.3,100.6,113.3,100.6,104.7z M125.6,94.9
		c5.4,0,9.8,4.4,9.8,9.8s-4.4,9.8-9.8,9.8c-5.4,0-9.8-4.4-9.8-9.8S120.2,94.9,125.6,94.9z M75.2,104.7c0-5.4,4.4-9.8,9.8-9.8
		c5.4,0,9.8,4.4,9.8,9.8s-4.4,9.8-9.8,9.8C79.6,114.5,75.2,110.1,75.2,104.7z"/>
	<path class="st0" d="M105.3,156.3c27,0,49-22,49-49c0-27-22-49-49-49s-49,22-49,49C56.3,134.3,78.3,156.3,105.3,156.3z M105.3,65.3
		c23.2,0,42,18.8,42,42c0,23.1-18.8,42-42,42c-23.1,0-42-18.8-42-42C63.3,84.1,82.2,65.3,105.3,65.3z"/>
</g>
</svg>
