<?xml version="1.0" encoding="utf-8"?>
<!-- Generator: Adobe Illustrator 21.0.0, SVG Export Plug-In . SVG Version: 6.00 Build 0)  -->
<svg version="1.1" id="Layer_1" xmlns="http://www.w3.org/2000/svg" xmlns:xlink="http://www.w3.org/1999/xlink" x="0px" y="0px"
	 viewBox="0 0 751 400" style="enable-background:new 0 0 751 400;" xml:space="preserve">
<style type="text/css">
	.st0{fill:#E6E6E6;}
	.st1{fill:#B3B3B3;}
	.st2{fill:#8C8F91;}
</style>
<g>
	<polygon class="st0" points="751,0 356.7,0 751,227.7 	"/>
</g>
<g>
	<polygon class="st1" points="751,0 465,0 751,165.1 	"/>
</g>
<path class="st2" d="M313.7,56.1l-0.2-0.3l3.7-2.1l0.2,0.3L313.7,56.1z M319.2,53l-0.2-0.3l3.7-2.1l0.2,0.3L319.2,53z M324.7,49.8
	l-0.2-0.3l3.7-2.1l0.2,0.3L324.7,49.8z M330.2,46.6l-0.2-0.3l3.7-2.1l0.2,0.3L330.2,46.6z M335.7,43.4l-0.2-0.3l3.7-2.1l0.2,0.3
	L335.7,43.4z M341.2,40.3L341,40l3.7-2.1l0.2,0.3L341.2,40.3z M346.7,37.1l-0.2-0.3l3.7-2.1l0.2,0.3L346.7,37.1z M352.2,33.9
	l-0.2-0.3l3.7-2.1l0.2,0.3L352.2,33.9z M357.7,30.8l-0.2-0.3l3.7-2.1l0.2,0.3L357.7,30.8z M363.1,27.6l-0.2-0.3l3.7-2.1l0.2,0.3
	L363.1,27.6z M368.6,24.4l-0.2-0.3l3.7-2.1l0.2,0.3L368.6,24.4z M374.1,21.2l-0.2-0.3l3.7-2.1l0.2,0.3L374.1,21.2z M379.6,18.1
	l-0.2-0.3l3.7-2.1l0.2,0.3L379.6,18.1z M385.1,14.9l-0.2-0.3l3.7-2.1l0.2,0.3L385.1,14.9z M390.6,11.7l-0.2-0.3l3.7-2.1l0.2,0.3
	L390.6,11.7z M396.1,8.5l-0.2-0.3l3.7-2.1l0.2,0.3L396.1,8.5z M401.6,5.4l-0.2-0.3l3.7-2.1l0.2,0.3L401.6,5.4z M407.1,2.2l-0.2-0.3
	l3.7-2.1l0.2,0.3L407.1,2.2z"/>
<polygon class="st2" points="341.7,8.7 341.5,8.4 343.4,7.3 343.6,7.6 "/>
<path class="st2" d="M345.3,6.6l-0.2-0.3l3.7-2.1l0.2,0.3L345.3,6.6z M350.8,3.4l-0.2-0.3l3.7-2.1l0.2,0.3L350.8,3.4z"/>
<path class="st2" d="M565.1,147.8l-0.2-0.3l3.7-2.1l0.2,0.3L565.1,147.8z M570.6,144.6l-0.2-0.3l3.7-2.1l0.2,0.3L570.6,144.6z
	 M576.1,141.5l-0.2-0.3l3.7-2.1l0.2,0.3L576.1,141.5z M581.6,138.3l-0.2-0.3l3.7-2.1l0.2,0.3L581.6,138.3z M587.1,135.1l-0.2-0.3
	l3.7-2.1l0.2,0.3L587.1,135.1z M592.6,132l-0.2-0.3l3.7-2.1l0.2,0.3L592.6,132z M598.1,128.8l-0.2-0.3l3.7-2.1l0.2,0.3L598.1,128.8z
	 M603.6,125.6l-0.2-0.3l3.7-2.1l0.2,0.3L603.6,125.6z M609.1,122.4l-0.2-0.3l3.7-2.1l0.2,0.3L609.1,122.4z M614.6,119.3l-0.2-0.3
	l3.7-2.1l0.2,0.3L614.6,119.3z M620.1,116.1l-0.2-0.3l3.7-2.1l0.2,0.3L620.1,116.1z M625.6,112.9l-0.2-0.3l3.7-2.1l0.2,0.3
	L625.6,112.9z M631.1,109.8l-0.2-0.3l3.7-2.1l0.2,0.3L631.1,109.8z M636.6,106.6l-0.2-0.3l3.7-2.1l0.2,0.3L636.6,106.6z
	 M642.1,103.4l-0.2-0.3l3.7-2.1l0.2,0.3L642.1,103.4z M647.6,100.2l-0.2-0.3l3.7-2.1l0.2,0.3L647.6,100.2z M653.1,97.1l-0.2-0.3
	l3.7-2.1l0.2,0.3L653.1,97.1z M658.6,93.9l-0.2-0.3l3.7-2.1l0.2,0.3L658.6,93.9z M664,90.7l-0.2-0.3l3.7-2.1l0.2,0.3L664,90.7z
	 M669.5,87.5l-0.2-0.3l3.7-2.1l0.2,0.3L669.5,87.5z M675,84.4l-0.2-0.3l3.7-2.1l0.2,0.3L675,84.4z M680.5,81.2l-0.2-0.3l3.7-2.1
	l0.2,0.3L680.5,81.2z M686,78l-0.2-0.3l3.7-2.1l0.2,0.3L686,78z M691.5,74.9l-0.2-0.3l3.7-2.1l0.2,0.3L691.5,74.9z M697,71.7
	l-0.2-0.3l3.7-2.1l0.2,0.3L697,71.7z M702.5,68.5l-0.2-0.3l3.7-2.1l0.2,0.3L702.5,68.5z M708,65.3l-0.2-0.3l3.7-2.1l0.2,0.3
	L708,65.3z M713.5,62.2l-0.2-0.3l3.7-2.1l0.2,0.3L713.5,62.2z M719,59l-0.2-0.3l3.7-2.1l0.2,0.3L719,59z M724.5,55.8l-0.2-0.3
	l3.7-2.1l0.2,0.3L724.5,55.8z M730,52.6l-0.2-0.3l3.7-2.1l0.2,0.3L730,52.6z M735.5,49.5l-0.2-0.3L739,47l0.2,0.3L735.5,49.5z
	 M741,46.3l-0.2-0.3l3.7-2.1l0.2,0.3L741,46.3z M746.5,43.1l-0.2-0.3l3.7-2.1l0.2,0.3L746.5,43.1z"/>
<path class="st2" d="M401.6,115.7l-0.2-0.3l3.7-2.1l0.2,0.3L401.6,115.7z M407.1,112.6l-0.2-0.3l3.7-2.1l0.2,0.3L407.1,112.6z
	 M412.6,109.4l-0.2-0.3l3.7-2.1l0.2,0.3L412.6,109.4z M418.1,106.2l-0.2-0.3l3.7-2.1l0.2,0.3L418.1,106.2z M423.6,103l-0.2-0.3
	l3.7-2.1l0.2,0.3L423.6,103z M429.1,99.8l-0.2-0.3l3.7-2.1l0.2,0.3L429.1,99.8z M434.6,96.7l-0.2-0.3l3.7-2.1l0.2,0.3L434.6,96.7z
	 M440.1,93.5l-0.2-0.3l3.7-2.1l0.2,0.3L440.1,93.5z M445.6,90.3l-0.2-0.3l3.7-2.1l0.2,0.3L445.6,90.3z M451.1,87.1l-0.2-0.3l3.7-2.1
	l0.2,0.3L451.1,87.1z M456.7,83.9l-0.2-0.3l3.7-2.1l0.2,0.3L456.7,83.9z M462.2,80.8l-0.2-0.3l3.7-2.1l0.2,0.3L462.2,80.8z
	 M467.7,77.6l-0.2-0.3l3.7-2.1l0.2,0.3L467.7,77.6z M473.2,74.4l-0.2-0.3l3.7-2.1l0.2,0.3L473.2,74.4z M478.7,71.2l-0.2-0.3l3.7-2.1
	l0.2,0.3L478.7,71.2z M484.2,68l-0.2-0.3l3.7-2.1l0.2,0.3L484.2,68z M489.7,64.9l-0.2-0.3l3.7-2.1l0.2,0.3L489.7,64.9z M495.2,61.7
	l-0.2-0.3l3.7-2.1l0.2,0.3L495.2,61.7z M500.7,58.5l-0.2-0.3l3.7-2.1l0.2,0.3L500.7,58.5z M506.2,55.3L506,55l3.7-2.1l0.2,0.3
	L506.2,55.3z M511.7,52.1l-0.2-0.3l3.7-2.1l0.2,0.3L511.7,52.1z M517.2,49l-0.2-0.3l3.7-2.1l0.2,0.3L517.2,49z M522.8,45.8l-0.2-0.3
	l3.7-2.1l0.2,0.3L522.8,45.8z M528.3,42.6l-0.2-0.3l3.7-2.1l0.2,0.3L528.3,42.6z M533.8,39.4l-0.2-0.3l3.7-2.1l0.2,0.3L533.8,39.4z
	 M539.3,36.2l-0.2-0.3l3.7-2.1l0.2,0.3L539.3,36.2z M544.8,33.1l-0.2-0.3l3.7-2.1l0.2,0.3L544.8,33.1z M550.3,29.9l-0.2-0.3l3.7-2.1
	l0.2,0.3L550.3,29.9z M555.8,26.7l-0.2-0.3l3.7-2.1l0.2,0.3L555.8,26.7z M561.3,23.5l-0.2-0.3l3.7-2.1l0.2,0.3L561.3,23.5z
	 M566.8,20.3l-0.2-0.3l3.7-2.1l0.2,0.3L566.8,20.3z M572.3,17.2l-0.2-0.3l3.7-2.1L576,15L572.3,17.2z M577.8,14l-0.2-0.3l3.7-2.1
	l0.2,0.3L577.8,14z M583.3,10.8l-0.2-0.3l3.7-2.1l0.2,0.3L583.3,10.8z M588.8,7.6l-0.2-0.3l3.7-2.1l0.2,0.3L588.8,7.6z M594.4,4.4
	l-0.2-0.3l3.7-2.1l0.2,0.3L594.4,4.4z"/>
<path class="st2" d="M631.7,86.2l-0.2-0.3l3.7-2.1l0.2,0.3L631.7,86.2z M637.2,83l-0.2-0.3l3.7-2.1l0.2,0.3L637.2,83z M642.6,79.9
	l-0.2-0.3l3.7-2.1l0.2,0.3L642.6,79.9z M648.1,76.7l-0.2-0.3l3.7-2.1l0.2,0.3L648.1,76.7z M653.6,73.5l-0.2-0.3l3.7-2.1l0.2,0.3
	L653.6,73.5z M659.1,70.4l-0.2-0.3l3.7-2.1l0.2,0.3L659.1,70.4z M664.6,67.2l-0.2-0.3l3.7-2.1l0.2,0.3L664.6,67.2z M670.1,64
	l-0.2-0.3l3.7-2.1l0.2,0.3L670.1,64z M675.6,60.9l-0.2-0.3l3.7-2.1l0.2,0.3L675.6,60.9z M681,57.7l-0.2-0.3l3.7-2.1l0.2,0.3
	L681,57.7z M686.5,54.5l-0.2-0.3l3.7-2.1l0.2,0.3L686.5,54.5z M692,51.4l-0.2-0.3l3.7-2.1l0.2,0.3L692,51.4z M697.5,48.2l-0.2-0.3
	l3.7-2.1l0.2,0.3L697.5,48.2z M703,45l-0.2-0.3l3.7-2.1l0.2,0.3L703,45z M708.5,41.9l-0.2-0.3l3.7-2.1l0.2,0.3L708.5,41.9z
	 M713.9,38.7l-0.2-0.3l3.7-2.1l0.2,0.3L713.9,38.7z M719.4,35.5l-0.2-0.3l3.7-2.1l0.2,0.3L719.4,35.5z M724.9,32.4l-0.2-0.3l3.7-2.1
	l0.2,0.3L724.9,32.4z M730.4,29.2l-0.2-0.3l3.7-2.1l0.2,0.3L730.4,29.2z M735.9,26l-0.2-0.3l3.7-2.1l0.2,0.3L735.9,26z M741.4,22.9
	l-0.2-0.3l3.7-2.1l0.2,0.3L741.4,22.9z M746.8,19.7l-0.2-0.3l3.7-2.1l0.2,0.3L746.8,19.7z"/>
<path class="st2" d="M515.2,113.9l-0.2-0.3l3.7-2.1l0.2,0.3L515.2,113.9z M520.7,110.8l-0.2-0.3l3.7-2.1l0.2,0.3L520.7,110.8z
	 M526.2,107.6l-0.2-0.3l3.7-2.1l0.2,0.3L526.2,107.6z M531.7,104.4l-0.2-0.3l3.7-2.1l0.2,0.3L531.7,104.4z M537.2,101.2l-0.2-0.3
	l3.7-2.1l0.2,0.3L537.2,101.2z M542.7,98.1l-0.2-0.3l3.7-2.1l0.2,0.3L542.7,98.1z M548.1,94.9l-0.2-0.3l3.7-2.1l0.2,0.3L548.1,94.9z
	 M553.6,91.7l-0.2-0.3l3.7-2.1l0.2,0.3L553.6,91.7z M559.1,88.6l-0.2-0.3l3.7-2.1l0.2,0.3L559.1,88.6z M564.6,85.4l-0.2-0.3l3.7-2.1
	l0.2,0.3L564.6,85.4z M570.1,82.2l-0.2-0.3l3.7-2.1l0.2,0.3L570.1,82.2z M575.6,79.1l-0.2-0.3l3.7-2.1l0.2,0.3L575.6,79.1z
	 M581.1,75.9l-0.2-0.3l3.7-2.1l0.2,0.3L581.1,75.9z M586.6,72.7l-0.2-0.3l3.7-2.1l0.2,0.3L586.6,72.7z M592.1,69.5l-0.2-0.3l3.7-2.1
	l0.2,0.3L592.1,69.5z M597.6,66.4l-0.2-0.3l3.7-2.1l0.2,0.3L597.6,66.4z M603.1,63.2l-0.2-0.3l3.7-2.1l0.2,0.3L603.1,63.2z
	 M608.6,60l-0.2-0.3l3.7-2.1l0.2,0.3L608.6,60z M614,56.9l-0.2-0.3l3.7-2.1l0.2,0.3L614,56.9z M619.5,53.7l-0.2-0.3l3.7-2.1l0.2,0.3
	L619.5,53.7z M625,50.5l-0.2-0.3l3.7-2.1l0.2,0.3L625,50.5z M630.5,47.3l-0.2-0.3l3.7-2.1l0.2,0.3L630.5,47.3z M636,44.2l-0.2-0.3
	l3.7-2.1l0.2,0.3L636,44.2z M641.5,41l-0.2-0.3l3.7-2.1l0.2,0.3L641.5,41z M647,37.8l-0.2-0.3l3.7-2.1l0.2,0.3L647,37.8z
	 M652.5,34.7l-0.2-0.3l3.7-2.1l0.2,0.3L652.5,34.7z M658,31.5l-0.2-0.3l3.7-2.1l0.2,0.3L658,31.5z M663.5,28.3l-0.2-0.3l3.7-2.1
	l0.2,0.3L663.5,28.3z M669,25.2l-0.2-0.3l3.7-2.1l0.2,0.3L669,25.2z M674.5,22l-0.2-0.3l3.7-2.1l0.2,0.3L674.5,22z M679.9,18.8
	l-0.2-0.3l3.7-2.1l0.2,0.3L679.9,18.8z M685.4,15.6l-0.2-0.3l3.7-2.1l0.2,0.3L685.4,15.6z M690.9,12.5l-0.2-0.3l3.7-2.1l0.2,0.3
	L690.9,12.5z M696.4,9.3L696.2,9l3.7-2.1l0.2,0.3L696.4,9.3z M701.9,6.1l-0.2-0.3l3.7-2.1l0.2,0.3L701.9,6.1z M707.4,3l-0.2-0.3
	l3.7-2.1l0.2,0.3L707.4,3z"/>
<path class="st2" d="M486.9,60.5l-0.2-0.3l3.7-2.1l0.2,0.3L486.9,60.5z M492.4,57.3l-0.2-0.3l3.7-2.1l0.2,0.3L492.4,57.3z M498,54.1
	l-0.2-0.3l3.7-2.1l0.2,0.3L498,54.1z M503.5,50.9l-0.2-0.3l3.7-2.1l0.2,0.3L503.5,50.9z M509,47.7l-0.2-0.3l3.7-2.1l0.2,0.3
	L509,47.7z M514.5,44.6l-0.2-0.3l3.7-2.1l0.2,0.3L514.5,44.6z M520,41.4l-0.2-0.3l3.7-2.1l0.2,0.3L520,41.4z M525.5,38.2l-0.2-0.3
	l3.7-2.1l0.2,0.3L525.5,38.2z M531,35l-0.2-0.3l3.7-2.1l0.2,0.3L531,35z M536.5,31.8l-0.2-0.3l3.7-2.1l0.2,0.3L536.5,31.8z
	 M542,28.7l-0.2-0.3l3.7-2.1l0.2,0.3L542,28.7z M547.5,25.5l-0.2-0.3l3.7-2.1l0.2,0.3L547.5,25.5z M553,22.3l-0.2-0.3l3.7-2.1
	l0.2,0.3L553,22.3z M558.5,19.1l-0.2-0.3l3.7-2.1l0.2,0.3L558.5,19.1z M564,15.9l-0.2-0.3l3.7-2.1l0.2,0.3L564,15.9z M569.6,12.8
	l-0.2-0.3l3.7-2.1l0.2,0.3L569.6,12.8z M575.1,9.6l-0.2-0.3l3.7-2.1l0.2,0.3L575.1,9.6z M580.6,6.4l-0.2-0.3l3.7-2.1l0.2,0.3
	L580.6,6.4z M586.1,3.2l-0.2-0.3l3.7-2.1l0.2,0.3L586.1,3.2z"/>
<path class="st2" d="M417.7,57.9l-3.7-2.2l0.2-0.3l3.7,2.2L417.7,57.9z M412.2,54.7l-3.7-2.2l0.2-0.3l3.7,2.2L412.2,54.7z
	 M406.7,51.5l-3.7-2.2l0.2-0.3l3.7,2.2L406.7,51.5z M401.1,48.3l-3.7-2.2l0.2-0.3l3.7,2.2L401.1,48.3z M395.6,45.1l-3.7-2.2l0.2-0.3
	l3.7,2.2L395.6,45.1z M390.1,41.9l-3.7-2.2l0.2-0.3l3.7,2.2L390.1,41.9z M384.6,38.8l-3.7-2.2l0.2-0.3l3.7,2.2L384.6,38.8z
	 M379,35.6l-3.7-2.2l0.2-0.3l3.7,2.2L379,35.6z M373.5,32.4l-3.7-2.2l0.2-0.3l3.7,2.2L373.5,32.4z M368,29.2l-3.7-2.2l0.2-0.3
	l3.7,2.2L368,29.2z M362.5,26l-3.7-2.2l0.2-0.3l3.7,2.2L362.5,26z M356.9,22.8l-3.7-2.2l0.2-0.3l3.7,2.2L356.9,22.8z M351.4,19.6
	l-3.7-2.2l0.2-0.3l3.7,2.2L351.4,19.6z M345.9,16.4l-3.7-2.2l0.2-0.3l3.7,2.2L345.9,16.4z M340.4,13.2l-3.7-2.2l0.2-0.3l3.7,2.2
	L340.4,13.2z M334.8,10l-3.7-2.2l0.2-0.3l3.7,2.2L334.8,10z M329.3,6.9l-3.7-2.2l0.2-0.3l3.7,2.2L329.3,6.9z M323.8,3.7l-3.7-2.2
	l0.2-0.3l3.7,2.2L323.8,3.7z"/>
<path class="st2" d="M13.7,45.1l-0.2-0.3l3.7-2.1l0.2,0.3L13.7,45.1z M19.2,42L19,41.7l3.7-2.1l0.2,0.3L19.2,42z M24.7,38.8
	l-0.2-0.3l3.7-2.1l0.2,0.3L24.7,38.8z M30.2,35.6L30,35.3l3.7-2.1l0.2,0.3L30.2,35.6z M35.7,32.4l-0.2-0.3l3.7-2.1l0.2,0.3
	L35.7,32.4z M41.2,29.3L41,29l3.7-2.1l0.2,0.3L41.2,29.3z M46.7,26.1l-0.2-0.3l3.7-2.1l0.2,0.3L46.7,26.1z M52.2,22.9L52,22.6
	l3.7-2.1l0.2,0.3L52.2,22.9z M57.7,19.8l-0.2-0.3l3.7-2.1l0.2,0.3L57.7,19.8z M63.1,16.6L63,16.3l3.7-2.1l0.2,0.3L63.1,16.6z
	 M68.6,13.4l-0.2-0.3l3.7-2.1l0.2,0.3L68.6,13.4z M74.1,10.2L74,9.9l3.7-2.1l0.2,0.3L74.1,10.2z M79.6,7.1l-0.2-0.3l3.7-2.1l0.2,0.3
	L79.6,7.1z M85.1,3.9L85,3.6l3.7-2.1l0.2,0.3L85.1,3.9z"/>
<path class="st2" d="M117.7,47.9l-3.7-2.2l0.2-0.3l3.7,2.2L117.7,47.9z M112.2,44.7l-3.7-2.2l0.2-0.3l3.7,2.2L112.2,44.7z
	 M106.7,41.5l-3.7-2.2l0.2-0.3l3.7,2.2L106.7,41.5z M101.1,38.3l-3.7-2.2l0.2-0.3l3.7,2.2L101.1,38.3z M95.6,35.1L91.9,33l0.2-0.3
	l3.7,2.2L95.6,35.1z M90.1,31.9l-3.7-2.2l0.2-0.3l3.7,2.2L90.1,31.9z M84.6,28.8l-3.7-2.2l0.2-0.3l3.7,2.2L84.6,28.8z M79,25.6
	l-3.7-2.2l0.2-0.3l3.7,2.2L79,25.6z M73.5,22.4l-3.7-2.2l0.2-0.3l3.7,2.2L73.5,22.4z M68,19.2L64.3,17l0.2-0.3l3.7,2.2L68,19.2z
	 M62.5,16l-3.7-2.2l0.2-0.3l3.7,2.2L62.5,16z M56.9,12.8l-3.7-2.2l0.2-0.3l3.7,2.2L56.9,12.8z M51.4,9.6l-3.7-2.2l0.2-0.3l3.7,2.2
	L51.4,9.6z M45.9,6.4l-3.7-2.2L42.3,4l3.7,2.2L45.9,6.4z M40.4,3.2l-3.7-2.2l0.2-0.3l3.7,2.2L40.4,3.2z"/>
<path class="st2" d="M746.7,186.1l-3.7-2.1l0.2-0.3l3.7,2.1L746.7,186.1z M741.2,182.9l-3.7-2.1l0.2-0.3l3.7,2.1L741.2,182.9z
	 M735.7,179.7l-3.7-2.1l0.2-0.3l3.7,2.1L735.7,179.7z M730.2,176.5l-3.7-2.1l0.2-0.3l3.7,2.1L730.2,176.5z M724.7,173.4l-3.7-2.1
	l0.2-0.3l3.7,2.1L724.7,173.4z M719.2,170.2l-3.7-2.1l0.2-0.3l3.7,2.1L719.2,170.2z M713.7,167l-3.7-2.1l0.2-0.3l3.7,2.1L713.7,167z
	 M708.2,163.8l-3.7-2.1l0.2-0.3l3.7,2.1L708.2,163.8z M702.7,160.6l-3.7-2.1l0.2-0.3l3.7,2.1L702.7,160.6z M697.1,157.4l-3.7-2.1
	l0.2-0.3l3.7,2.1L697.1,157.4z M691.6,154.3l-3.7-2.1l0.2-0.3l3.7,2.1L691.6,154.3z M686.1,151.1l-3.7-2.1l0.2-0.3l3.7,2.1
	L686.1,151.1z M680.6,147.9l-3.7-2.1l0.2-0.3l3.7,2.1L680.6,147.9z M675.1,144.7l-3.7-2.1l0.2-0.3l3.7,2.1L675.1,144.7z
	 M669.6,141.5l-3.7-2.1l0.2-0.3l3.7,2.1L669.6,141.5z M664.1,138.4l-3.7-2.1l0.2-0.3l3.7,2.1L664.1,138.4z M658.6,135.2l-3.7-2.1
	l0.2-0.3l3.7,2.1L658.6,135.2z M653,132l-3.7-2.1l0.2-0.3l3.7,2.1L653,132z M647.5,128.8l-3.7-2.1l0.2-0.3l3.7,2.1L647.5,128.8z
	 M642,125.6l-3.7-2.1l0.2-0.3l3.7,2.1L642,125.6z M636.5,122.4l-3.7-2.1l0.2-0.3l3.7,2.1L636.5,122.4z M631,119.3l-3.7-2.1l0.2-0.3
	l3.7,2.1L631,119.3z M625.5,116.1l-3.7-2.1l0.2-0.3l3.7,2.1L625.5,116.1z M620,112.9l-3.7-2.1l0.2-0.3l3.7,2.1L620,112.9z
	 M614.5,109.7l-3.7-2.1l0.2-0.3l3.7,2.1L614.5,109.7z M609,106.5l-3.7-2.1l0.2-0.3l3.7,2.1L609,106.5z M603.4,103.4l-3.7-2.1
	l0.2-0.3l3.7,2.1L603.4,103.4z M597.9,100.2l-3.7-2.1l0.2-0.3l3.7,2.1L597.9,100.2z M592.4,97l-3.7-2.1l0.2-0.3l3.7,2.1L592.4,97z
	 M586.9,93.8l-3.7-2.1l0.2-0.3l3.7,2.1L586.9,93.8z M581.4,90.6l-3.7-2.1l0.2-0.3l3.7,2.1L581.4,90.6z M575.9,87.4l-3.7-2.1l0.2-0.3
	l3.7,2.1L575.9,87.4z M570.4,84.3l-3.7-2.1l0.2-0.3l3.7,2.1L570.4,84.3z M564.9,81.1l-3.7-2.1l0.2-0.3l3.7,2.1L564.9,81.1z
	 M559.4,77.9l-3.7-2.1l0.2-0.3l3.7,2.1L559.4,77.9z M553.8,74.7l-3.7-2.1l0.2-0.3l3.7,2.1L553.8,74.7z M548.3,71.5l-3.7-2.1l0.2-0.3
	l3.7,2.1L548.3,71.5z M542.8,68.3l-3.7-2.1l0.2-0.3L543,68L542.8,68.3z M537.3,65.2l-3.7-2.1l0.2-0.3l3.7,2.1L537.3,65.2z M531.8,62
	l-3.7-2.1l0.2-0.3l3.7,2.1L531.8,62z M526.3,58.8l-3.7-2.1l0.2-0.3l3.7,2.1L526.3,58.8z M520.8,55.6l-3.7-2.1l0.2-0.3l3.7,2.1
	L520.8,55.6z M515.3,52.4l-3.7-2.1l0.2-0.3l3.7,2.1L515.3,52.4z M509.7,49.3l-3.7-2.1l0.2-0.3l3.7,2.1L509.7,49.3z M504.2,46.1
	l-3.7-2.1l0.2-0.3l3.7,2.1L504.2,46.1z M498.7,42.9l-3.7-2.1l0.2-0.3l3.7,2.1L498.7,42.9z M493.2,39.7l-3.7-2.1l0.2-0.3l3.7,2.1
	L493.2,39.7z M487.7,36.5l-3.7-2.1l0.2-0.3l3.7,2.1L487.7,36.5z M482.2,33.3l-3.7-2.1l0.2-0.3l3.7,2.1L482.2,33.3z M476.7,30.2
	L473,28l0.2-0.3l3.7,2.1L476.7,30.2z M471.2,27l-3.7-2.1l0.2-0.3l3.7,2.1L471.2,27z M465.7,23.8l-3.7-2.1l0.2-0.3l3.7,2.1
	L465.7,23.8z M460.1,20.6l-3.7-2.1l0.2-0.3l3.7,2.1L460.1,20.6z M454.6,17.4l-3.7-2.1l0.2-0.3l3.7,2.1L454.6,17.4z M449.1,14.3
	l-3.7-2.1l0.2-0.3l3.7,2.1L449.1,14.3z M443.6,11.1l-3.7-2.1l0.2-0.3l3.7,2.1L443.6,11.1z M438.1,7.9l-3.7-2.1l0.2-0.3l3.7,2.1
	L438.1,7.9z M432.6,4.7l-3.7-2.1l0.2-0.3l3.7,2.1L432.6,4.7z"/>
<path class="st2" d="M749.1,124.1l-3.7-2.1l0.2-0.3l3.7,2.1L749.1,124.1z M743.6,121l-3.7-2.1l0.2-0.3l3.7,2.1L743.6,121z
	 M738.1,117.8l-3.7-2.1l0.2-0.3l3.7,2.1L738.1,117.8z M732.6,114.6l-3.7-2.1l0.2-0.3l3.7,2.1L732.6,114.6z M727.1,111.5l-3.7-2.1
	l0.2-0.3l3.7,2.1L727.1,111.5z M721.7,108.3l-3.7-2.1l0.2-0.3l3.7,2.1L721.7,108.3z M716.2,105.1l-3.7-2.1l0.2-0.3l3.7,2.1
	L716.2,105.1z M710.7,102l-3.7-2.1l0.2-0.3l3.7,2.1L710.7,102z M705.2,98.8l-3.7-2.1l0.2-0.3l3.7,2.1L705.2,98.8z M699.7,95.6
	l-3.7-2.1l0.2-0.3l3.7,2.1L699.7,95.6z M694.3,92.5l-3.7-2.1l0.2-0.3l3.7,2.1L694.3,92.5z M688.8,89.3l-3.7-2.1l0.2-0.3L689,89
	L688.8,89.3z M683.3,86.2l-3.7-2.1l0.2-0.3l3.7,2.1L683.3,86.2z M677.8,83l-3.7-2.1l0.2-0.3l3.7,2.1L677.8,83z M672.3,79.8l-3.7-2.1
	l0.2-0.3l3.7,2.1L672.3,79.8z M666.9,76.7l-3.7-2.1l0.2-0.3l3.7,2.1L666.9,76.7z M661.4,73.5l-3.7-2.1l0.2-0.3l3.7,2.1L661.4,73.5z
	 M655.9,70.3l-3.7-2.1l0.2-0.3l3.7,2.1L655.9,70.3z M650.4,67.2l-3.7-2.1l0.2-0.3l3.7,2.1L650.4,67.2z M644.9,64l-3.7-2.1l0.2-0.3
	l3.7,2.1L644.9,64z M639.5,60.8l-3.7-2.1l0.2-0.3l3.7,2.1L639.5,60.8z M634,57.7l-3.7-2.1l0.2-0.3l3.7,2.1L634,57.7z M628.5,54.5
	l-3.7-2.1l0.2-0.3l3.7,2.1L628.5,54.5z M623,51.3l-3.7-2.1l0.2-0.3l3.7,2.1L623,51.3z M617.5,48.2l-3.7-2.1l0.2-0.3l3.7,2.1
	L617.5,48.2z M612,45l-3.7-2.1l0.2-0.3l3.7,2.1L612,45z M606.6,41.9l-3.7-2.1l0.2-0.3l3.7,2.1L606.6,41.9z M601.1,38.7l-3.7-2.1
	l0.2-0.3l3.7,2.1L601.1,38.7z M595.6,35.5l-3.7-2.1l0.2-0.3l3.7,2.1L595.6,35.5z M590.1,32.4l-3.7-2.1l0.2-0.3l3.7,2.1L590.1,32.4z
	 M584.6,29.2l-3.7-2.1l0.2-0.3l3.7,2.1L584.6,29.2z M579.2,26l-3.7-2.1l0.2-0.3l3.7,2.1L579.2,26z M573.7,22.9l-3.7-2.1l0.2-0.3
	l3.7,2.1L573.7,22.9z M568.2,19.7l-3.7-2.1l0.2-0.3l3.7,2.1L568.2,19.7z M562.7,16.5l-3.7-2.1l0.2-0.3l3.7,2.1L562.7,16.5z
	 M557.2,13.4l-3.7-2.1l0.2-0.3l3.7,2.1L557.2,13.4z M551.8,10.2l-3.7-2.1l0.2-0.3l3.7,2.1L551.8,10.2z M546.3,7l-3.7-2.1l0.2-0.3
	l3.7,2.1L546.3,7z M540.8,3.9l-3.7-2.1l0.2-0.3l3.7,2.1L540.8,3.9z"/>
<path class="st2" d="M453.9,49.2h-0.4v-4.3h0.4V49.2z M453.9,42.8h-0.4v-4.3h0.4V42.8z M453.9,36.5h-0.4v-4.3h0.4V36.5z M453.9,30.1
	h-0.4v-4.3h0.4V30.1z M453.9,23.8h-0.4v-4.3h0.4V23.8z M453.9,17.4h-0.4v-4.3h0.4V17.4z M453.9,11.1h-0.4V6.8h0.4V11.1z M453.9,4.7
	h-0.4V0.5h0.4V4.7z"/>
<path class="st2" d="M411.8,35.4h-0.4v-3.1h0.4V35.4z M411.8,30.2h-0.4v-4.3h0.4V30.2z M411.8,23.9h-0.4v-4.3h0.4V23.9z M411.8,17.5
	h-0.4v-4.3h0.4V17.5z M411.8,11.2h-0.4V6.9h0.4V11.2z M411.8,4.8h-0.4V0.6h0.4V4.8z"/>
<path class="st2" d="M666,161.1h-0.4v-4.3h0.4V161.1z M666,154.7h-0.4v-4.3h0.4V154.7z M666,148.4h-0.4v-4.3h0.4V148.4z M666,142
	h-0.4v-4.3h0.4V142z M666,135.7h-0.4v-4.3h0.4V135.7z M666,129.3h-0.4V125h0.4V129.3z M666,123h-0.4v-4.3h0.4V123z M666,116.6h-0.4
	v-4.3h0.4V116.6z M666,110.3h-0.4V106h0.4V110.3z M666,103.9h-0.4v-4.3h0.4V103.9z M666,97.6h-0.4v-4.3h0.4V97.6z M666,91.2h-0.4V87
	h0.4V91.2z M666,84.9h-0.4v-4.3h0.4V84.9z M666,78.5h-0.4v-4.3h0.4V78.5z M666,72.2h-0.4v-4.3h0.4V72.2z M666,65.9h-0.4v-4.3h0.4
	V65.9z M666,59.5h-0.4v-4.3h0.4V59.5z M666,53.2h-0.4v-4.3h0.4V53.2z M666,46.8h-0.4v-4.3h0.4V46.8z M666,40.5h-0.4v-4.3h0.4V40.5z
	 M666,34.1h-0.4v-4.3h0.4V34.1z M666,27.8h-0.4v-4.3h0.4V27.8z M666,21.4h-0.4v-4.3h0.4V21.4z M666,15.1h-0.4v-4.3h0.4V15.1z
	 M666,8.7h-0.4V4.4h0.4V8.7z"/>
</svg>
