<?xml version="1.0" encoding="utf-8"?>
<!-- Generator: Adobe Illustrator 21.0.0, SVG Export Plug-In . SVG Version: 6.00 Build 0)  -->
<svg version="1.1" id="Layer_1" xmlns="http://www.w3.org/2000/svg" xmlns:xlink="http://www.w3.org/1999/xlink" x="0px" y="0px"
	 viewBox="0 0 300 100" style="enable-background:new 0 0 300 100;" xml:space="preserve">
<style type="text/css">
	.st0{fill:#E6E6E6;}
	.st1{fill:#B3B3B3;}
	.st2{fill:#8C8F91;}
</style>
<g>
	<polygon class="st0" points="0,100 159,100 0,8.2 	"/>
</g>
<g>
	<polygon class="st1" points="0,100 115.3,100 0,33.4 	"/>
</g>
<path class="st2" d="M97.1,40.9l0.2,0.3l-3.7,2.1L93.4,43L97.1,40.9z M91.6,44l0.2,0.3l-3.7,2.1l-0.2-0.3L91.6,44z M86.1,47.2
	l0.2,0.3l-3.7,2.1l-0.2-0.3L86.1,47.2z M80.6,50.4l0.2,0.3l-3.7,2.1l-0.2-0.3L80.6,50.4z M75.1,53.6l0.2,0.3L71.6,56l-0.2-0.3
	L75.1,53.6z M69.6,56.7l0.2,0.3l-3.7,2.1l-0.2-0.3L69.6,56.7z M64.1,59.9l0.2,0.3l-3.7,2.1L60.4,62L64.1,59.9z M58.6,63.1l0.2,0.3
	l-3.7,2.1l-0.2-0.3L58.6,63.1z M53.1,66.2l0.2,0.3l-3.7,2.1l-0.2-0.3L53.1,66.2z M47.7,69.4l0.2,0.3l-3.7,2.1L44,71.5L47.7,69.4z
	 M42.2,72.6l0.2,0.3L38.7,75l-0.2-0.3L42.2,72.6z M36.7,75.8l0.2,0.3l-3.7,2.1L33,77.9L36.7,75.8z M31.2,78.9l0.2,0.3l-3.7,2.1
	L27.5,81L31.2,78.9z M25.7,82.1l0.2,0.3l-3.7,2.1L22,84.2L25.7,82.1z M20.2,85.3l0.2,0.3l-3.7,2.1l-0.2-0.3L20.2,85.3z M14.7,88.5
	l0.2,0.3l-3.7,2.1L11,90.6L14.7,88.5z M9.2,91.6l0.2,0.3L5.7,94l-0.2-0.3L9.2,91.6z M3.7,94.8l0.2,0.3l-3.7,2.1L0,96.9L3.7,94.8z"/>
<path class="st2" d="M9.2,90.4l0.2,0.3l-3.7,2.1l-0.2-0.3L9.2,90.4z M3.7,93.6l0.2,0.3L0.2,96L0,95.7L3.7,93.6z"/>
<path class="st2" d="M118.8,10.8l0.2,0.3l-3.7,2.1l-0.2-0.3L118.8,10.8z M113.3,14l0.2,0.3l-3.7,2.1l-0.2-0.3L113.3,14z M107.9,17.1
	l0.2,0.3l-3.7,2.1l-0.2-0.3L107.9,17.1z M102.4,20.3l0.2,0.3l-3.7,2.1l-0.2-0.3L102.4,20.3z M96.9,23.5l0.2,0.3l-3.7,2.1l-0.2-0.3
	L96.9,23.5z M91.4,26.6l0.2,0.3L87.9,29l-0.2-0.3L91.4,26.6z M85.9,29.8l0.2,0.3l-3.7,2.1l-0.2-0.3L85.9,29.8z M80.4,33l0.2,0.3
	l-3.7,2.1l-0.2-0.3L80.4,33z M74.9,36.1l0.2,0.3l-3.7,2.1l-0.2-0.3L74.9,36.1z M69.5,39.3l0.2,0.3L66,41.7l-0.2-0.3L69.5,39.3z
	 M64,42.5l0.2,0.3l-3.7,2.1l-0.2-0.3L64,42.5z M58.5,45.6l0.2,0.3L55,48l-0.2-0.3L58.5,45.6z M53,48.8l0.2,0.3l-3.7,2.1l-0.2-0.3
	L53,48.8z M47.5,52l0.2,0.3L44,54.4l-0.2-0.3L47.5,52z M42,55.1l0.2,0.3l-3.7,2.1l-0.2-0.3L42,55.1z M36.6,58.3l0.2,0.3l-3.7,2.1
	l-0.2-0.3L36.6,58.3z M31.1,61.5l0.2,0.3l-3.7,2.1l-0.2-0.3L31.1,61.5z M25.6,64.6l0.2,0.3L22.1,67l-0.2-0.3L25.6,64.6z M20.1,67.8
	l0.2,0.3l-3.7,2.1l-0.2-0.3L20.1,67.8z M14.6,71l0.2,0.3l-3.7,2.1l-0.2-0.3L14.6,71z M9.1,74.1l0.2,0.3l-3.7,2.1l-0.2-0.3L9.1,74.1z
	 M3.7,77.3l0.2,0.3l-3.7,2.1L0,79.4L3.7,77.3z"/>
<path class="st2" d="M167.9,41.5l0.2,0.3l-3.7,2.1l-0.2-0.3L167.9,41.5z M162.4,44.7l0.2,0.3l-3.7,2.1l-0.2-0.3L162.4,44.7z
	 M156.8,47.9l0.2,0.3l-3.7,2.1l-0.2-0.3L156.8,47.9z M151.3,51.1l0.2,0.3l-3.7,2.1l-0.2-0.3L151.3,51.1z M145.8,54.3l0.2,0.3
	l-3.7,2.1l-0.2-0.3L145.8,54.3z M140.3,57.4l0.2,0.3l-3.7,2.1l-0.2-0.3L140.3,57.4z M134.8,60.6l0.2,0.3l-3.7,2.1l-0.2-0.3
	L134.8,60.6z M129.3,63.8l0.2,0.3l-3.7,2.1l-0.2-0.3L129.3,63.8z M123.8,67l0.2,0.3l-3.7,2.1l-0.2-0.3L123.8,67z M118.3,70.2
	l0.2,0.3l-3.7,2.1l-0.2-0.3L118.3,70.2z M112.8,73.3l0.2,0.3l-3.7,2.1l-0.2-0.3L112.8,73.3z M107.3,76.5l0.2,0.3l-3.7,2.1l-0.2-0.3
	L107.3,76.5z M101.8,79.7L102,80l-3.7,2.1l-0.2-0.3L101.8,79.7z M96.3,82.9l0.2,0.3l-3.7,2.1L92.6,85L96.3,82.9z M90.8,86.1l0.2,0.3
	l-3.7,2.1l-0.2-0.3L90.8,86.1z M85.2,89.2l0.2,0.3l-3.7,2.1l-0.2-0.3L85.2,89.2z M79.7,92.4l0.2,0.3l-3.7,2.1L76,94.5L79.7,92.4z
	 M74.2,95.6l0.2,0.3L70.7,98l-0.2-0.3L74.2,95.6z M68.7,98.8l0.2,0.3l-3.7,2.1l-0.2-0.3L68.7,98.8z"/>
<path class="st2" d="M0.2,43.3l3.7,2.2l-0.2,0.3L0,43.6L0.2,43.3z M5.7,46.5l3.7,2.2L9.2,49l-3.7-2.2L5.7,46.5z M11.2,49.7l3.7,2.2
	l-0.2,0.3L11,50L11.2,49.7z M16.8,52.9l3.7,2.2l-0.2,0.3l-3.7-2.2L16.8,52.9z M22.3,56.1l3.7,2.2l-0.2,0.3l-3.7-2.2L22.3,56.1z
	 M27.8,59.3l3.7,2.2l-0.2,0.3l-3.7-2.2L27.8,59.3z M33.3,62.4l3.7,2.2l-0.2,0.3l-3.7-2.2L33.3,62.4z M38.9,65.6l3.7,2.2l-0.2,0.3
	l-3.7-2.2L38.9,65.6z M44.4,68.8l3.7,2.2l-0.2,0.3l-3.7-2.2L44.4,68.8z M49.9,72l3.7,2.2l-0.2,0.3l-3.7-2.2L49.9,72z M55.4,75.2
	l3.7,2.2l-0.2,0.3l-3.7-2.2L55.4,75.2z M61,78.4l3.7,2.2l-0.2,0.3l-3.7-2.2L61,78.4z M66.5,81.6l3.7,2.2L70,84.1l-3.7-2.2L66.5,81.6
	z M72,84.8l3.7,2.2l-0.2,0.3l-3.7-2.2L72,84.8z M77.5,88l3.7,2.2L81,90.5l-3.7-2.2L77.5,88z M83.1,91.2l3.7,2.2l-0.2,0.3l-3.7-2.2
	L83.1,91.2z M88.6,94.3l3.7,2.2l-0.2,0.3l-3.7-2.2L88.6,94.3z M94.1,97.5l3.7,2.2l-0.2,0.3l-3.7-2.2L94.1,97.5z"/>
<path class="st2" d="M75.2,15.9l0.2,0.3l-3.7,2.1L71.5,18L75.2,15.9z M69.7,19l0.2,0.3l-3.7,2.1L66,21.1L69.7,19z M64.2,22.2
	l0.2,0.3l-3.7,2.1l-0.2-0.3L64.2,22.2z M58.7,25.4l0.2,0.3l-3.7,2.1L55,27.5L58.7,25.4z M53.2,28.6l0.2,0.3L49.7,31l-0.2-0.3
	L53.2,28.6z M47.7,31.7l0.2,0.3l-3.7,2.1L44,33.8L47.7,31.7z M42.2,34.9l0.2,0.3l-3.7,2.1L38.5,37L42.2,34.9z M36.7,38.1l0.2,0.3
	l-3.7,2.1L33,40.2L36.7,38.1z M31.2,41.2l0.2,0.3l-3.7,2.1l-0.2-0.3L31.2,41.2z M25.8,44.4l0.1,0.3l-3.7,2.1L22,46.5L25.8,44.4z
	 M20.3,47.6l0.2,0.3L16.8,50l-0.2-0.3L20.3,47.6z M14.8,50.8l0.1,0.3l-3.7,2.1L11,52.9L14.8,50.8z M9.3,53.9l0.2,0.3l-3.7,2.1
	L5.6,56L9.3,53.9z M3.8,57.1l0.1,0.3l-3.7,2.1L0,59.2L3.8,57.1z"/>
<path class="st2" d="M0.2,52.8L3.9,55l-0.2,0.3L0,53.1L0.2,52.8z M5.7,56l3.7,2.2l-0.2,0.3l-3.7-2.2L5.7,56z M11.2,59.2l3.7,2.2
	l-0.2,0.3L11,59.5L11.2,59.2z M16.8,62.4l3.7,2.2l-0.2,0.3l-3.7-2.2L16.8,62.4z M22.3,65.6l3.7,2.1L25.8,68l-3.7-2.2L22.3,65.6z
	 M27.8,68.8l3.7,2.2l-0.2,0.3l-3.7-2.2L27.8,68.8z M33.3,71.9l3.7,2.2l-0.2,0.3l-3.7-2.2L33.3,71.9z M38.9,75.1l3.7,2.2l-0.2,0.3
	l-3.7-2.2L38.9,75.1z M44.4,78.3l3.7,2.2l-0.2,0.3l-3.7-2.2L44.4,78.3z M49.9,81.5l3.7,2.2L53.4,84l-3.7-2.2L49.9,81.5z M55.4,84.7
	l3.7,2.2l-0.2,0.3L55.2,85L55.4,84.7z M61,87.9l3.7,2.2l-0.2,0.3l-3.7-2.2L61,87.9z M66.5,91.1l3.7,2.2L70,93.6l-3.7-2.2L66.5,91.1z
	 M72,94.3l3.7,2.2l-0.1,0.2l-3.7-2.2L72,94.3z M77.5,97.5l3.7,2.2L81,100l-3.7-2.2L77.5,97.5z"/>
<path class="st2" d="M0.2-22.6l3.7,2.1l-0.2,0.3L0-22.3L0.2-22.6z M5.7-19.5l3.7,2.1l-0.2,0.3l-3.7-2.1L5.7-19.5z M11.2-16.3
	l3.7,2.1l-0.2,0.3L11-16L11.2-16.3z M16.7-13.1l3.7,2.1l-0.2,0.3l-3.7-2.1L16.7-13.1z M22.2-10l3.7,2.1l-0.2,0.3L22-9.7L22.2-10z
	 M27.6-6.8l3.7,2.1l-0.2,0.3l-3.7-2.1L27.6-6.8z M33.1-3.6l3.7,2.1l-0.2,0.3l-3.7-2.1L33.1-3.6z M38.6-0.5l3.7,2.1l-0.2,0.3
	l-3.7-2.1L38.6-0.5z M44.1,2.7l3.7,2.1l-0.2,0.3L43.9,3L44.1,2.7z M49.6,5.9L53.3,8l-0.2,0.3l-3.7-2.1L49.6,5.9z M55,9l3.7,2.1
	l-0.2,0.3l-3.7-2.1L55,9z M60.5,12.2l3.7,2.1L64,14.6l-3.7-2.1L60.5,12.2z M66,15.3l3.7,2.1l-0.2,0.3l-3.7-2.1L66,15.3z M71.5,18.5
	l3.7,2.1L75,20.9l-3.7-2.1L71.5,18.5z M77,21.7l3.7,2.1l-0.2,0.3L76.8,22L77,21.7z M82.4,24.8l3.7,2.1l-0.2,0.3l-3.7-2.1L82.4,24.8z
	 M87.9,28l3.7,2.1l-0.2,0.3l-3.7-2.1L87.9,28z M93.4,31.2l3.7,2.1l-0.2,0.3l-3.7-2.1L93.4,31.2z M98.9,34.3l3.7,2.1l-0.2,0.3
	l-3.7-2.1L98.9,34.3z M104.4,37.5l3.7,2.1l-0.2,0.3l-3.7-2.1L104.4,37.5z M109.8,40.7l3.7,2.1l-0.2,0.3l-3.7-2.1L109.8,40.7z
	 M115.3,43.8l3.7,2.1l-0.2,0.3l-3.7-2.1L115.3,43.8z M120.8,47l3.7,2.1l-0.2,0.3l-3.7-2.1L120.8,47z M126.3,50.2l3.7,2.1l-0.2,0.3
	l-3.7-2.1L126.3,50.2z M131.8,53.3l3.7,2.1l-0.2,0.3l-3.7-2.1L131.8,53.3z M137.3,56.5l3.7,2.1l-0.2,0.3l-3.7-2.1L137.3,56.5z
	 M142.7,59.6l3.7,2.1l-0.2,0.3l-3.7-2.1L142.7,59.6z M148.2,62.8l3.7,2.1l-0.2,0.3l-3.7-2.1L148.2,62.8z M153.7,66l3.7,2.1l-0.2,0.3
	l-3.7-2.1L153.7,66z M159.2,69.1l3.7,2.1l-0.2,0.3l-3.7-2.1L159.2,69.1z M164.7,72.3l3.7,2.1l-0.2,0.3l-3.7-2.1L164.7,72.3z
	 M170.1,75.5l3.7,2.1l-0.2,0.3l-3.7-2.1L170.1,75.5z M175.6,78.6l3.7,2.1l-0.2,0.3l-3.7-2.1L175.6,78.6z M181.1,81.8l3.7,2.1
	l-0.2,0.3l-3.7-2.1L181.1,81.8z M186.6,85l3.7,2.1l-0.2,0.3l-3.7-2.1L186.6,85z M192.1,88.1l3.7,2.1l-0.2,0.3l-3.7-2.1L192.1,88.1z
	 M197.5,91.3l3.7,2.1l-0.2,0.3l-3.7-2.1L197.5,91.3z M203,94.5l3.7,2.1l-0.2,0.3l-3.7-2.1L203,94.5z M208.5,97.6l3.7,2.1L212,100
	l-3.7-2.1L208.5,97.6z"/>
<path class="st2" d="M0,47.8h0.4v4.3H0V47.8z M0,54.2h0.4v4.3H0V54.2z M0,60.5h0.4v4.3H0V60.5z M0,66.9h0.4v4.3H0V66.9z M0,73.2h0.4
	v4.3H0V73.2z M0,79.6h0.4v4.3H0V79.6z M0,85.9h0.4v4.3H0V85.9z M0,92.3h0.4v4.2H0V92.3z"/>
<path class="st2" d="M0,61.6h0.4v3.1H0V61.6z M0,66.8h0.4v4.3H0V66.8z M0,73.1h0.4v4.3H0V73.1z M0,79.5h0.4v4.3H0V79.5z M0,85.8h0.4
	v4.3H0V85.8z M0,92.2h0.4v4.2H0V92.2z"/>
<path class="st2" d="M0-64.1h0.4v4.3H0V-64.1z M0-57.7h0.4v4.3H0V-57.7z M0-51.4h0.4v4.3H0V-51.4z M0-45h0.4v4.3H0V-45z M0-38.7h0.4
	v4.3H0V-38.7z M0-32.3h0.4v4.3H0V-32.3z M0-26h0.4v4.3H0V-26z M0-19.6h0.4v4.3H0V-19.6z M0-13.3h0.4V-9H0V-13.3z M0-6.9h0.4v4.3H0
	V-6.9z M0-0.6h0.4v4.3H0V-0.6z M0,5.8h0.4V10H0V5.8z M0,12.1h0.4v4.3H0V12.1z M0,18.5h0.4v4.3H0V18.5z M0,24.8h0.4v4.3H0V24.8z
	 M0,31.1h0.4v4.3H0V31.1z M0,37.5h0.4v4.3H0V37.5z M0,43.8h0.4v4.3H0V43.8z M0,50.2h0.4v4.3H0V50.2z M0,56.5h0.4v4.3H0V56.5z
	 M0,62.9h0.4v4.3H0V62.9z M0,69.2h0.4v4.3H0V69.2z M0,75.6h0.4v4.3H0V75.6z M0,81.9h0.4v4.3H0V81.9z M0,88.3h0.4v4.3H0V88.3z"/>
</svg>
