<?xml version="1.0" encoding="utf-8"?>
<!-- Generator: Adobe Illustrator 21.0.0, SVG Export Plug-In . SVG Version: 6.00 Build 0)  -->
<svg version="1.1" id="Layer_1" xmlns="http://www.w3.org/2000/svg" xmlns:xlink="http://www.w3.org/1999/xlink" x="0px" y="0px"
	 viewBox="0 0 512 512" style="enable-background:new 0 0 512 512;" xml:space="preserve">
<style type="text/css">
	.st0{fill:#820000;}
</style>
<g>
	<g>
		<g>
			<path class="st0" d="M124.7,482.5c12-13.3,10-34,9.9-34.6l-7.2-222.7c0-2.5-0.1-4.9-0.1-7.2c-0.5-15.8-0.8-26.3,24.3-46.1
				c32.9-26,25.4-72,25-73.9c-7.4-45.2-40.1-70.8-41.5-71.8C122.4,16.7,112.4,12,104.3,12c-8.5,0-12.6,5.3-13.7,8.4
				c-0.4,1.1-0.4,2.3,0,3.4L109.7,76l-3.2,24.9L81,112.8L61.7,96c-2-5.4-10.3-27.9-14.5-39.8c-3.5-9.9-7.3-14.7-12.2-15.5
				c-3-0.5-5.5,0.9-7,2.4c-40.9,35.6-7.8,99.2-5.8,103c0.4,0.9,3.6,7.4,8.8,15.9l-3.1,1.5c-7.8,3.7-10.2,12.7-5.8,22
				c2.9,6.2,7.9,9.8,13.5,9.8c2.2,0,4.4-0.5,6.6-1.6l10-4.7c1.5,1.5,3,2.9,4.6,4.2c8.7,7.4,11.9,12,11.2,31.8l-7.6,222.7
				c-0.1,0.9-1.9,21.2,10.2,34.5c6.6,7.3,16,11,27.8,11C109.5,493.1,118.3,489.5,124.7,482.5z M70.4,448.2l7.6-223
				c0.8-20.8-2.3-29.4-14.7-39.9c-14.1-12-25.1-30.6-29.7-39.2l79.7-37.2c1.6-0.7,2.7-2.2,2.9-4l3.7-28.9c0.1-0.8,0-1.6-0.3-2.4
				l-18.6-50.8c0.6-0.4,1.6-0.7,3.2-0.7c3.2,0,10.7,1.6,24.7,12.1c0.3,0.2,30.9,24.3,37.6,65.4c0.1,0.4,6.8,42-21.3,64.3
				c-29.1,23-28.7,37.6-28.1,54.4c0.1,2.2,0.1,4.5,0.1,7.1l7.2,223.2c0,0.2,1.5,17.3-7.3,27.1c-4.4,4.9-10.5,7.2-18.8,7.2
				c-8.8,0-15.6-2.6-20.3-7.7C69,465.3,70.4,448.7,70.4,448.2z M33.8,51.5c0.8,1.1,2.2,3.5,3.8,8c4.8,13.7,15,41.2,15,41.2
				c0.3,0.8,0.8,1.5,1.4,2.1L71,117.5l-41.8,19.5C22.7,123,5.4,77.5,33.8,51.5z M39,186.7c-1.2,0.5-2.3,0.8-3.3,0.8
				c-3.6,0-5.7-3.4-6.7-5.4c-1.5-3.3-2.8-9.4,2.2-11.8l4.1-1.9c3.3,4.8,7.1,9.9,11.4,14.7L39,186.7z"/>
			<path class="st0" d="M132.9,148c0.7,1,1.9,1.5,3,1.5c0.8,0,1.6-0.3,2.3-0.8c1.7-1.3,2-3.6,0.8-5.3l-14.8-19.8
				c-1.3-1.7-3.6-2-5.3-0.8c-1.7,1.3-2,3.6-0.8,5.3L132.9,148z"/>
			<path class="st0" d="M119.2,154.7c0.7,1,1.9,1.5,3,1.5c0.8,0,1.6-0.2,2.3-0.8c1.7-1.3,2-3.6,0.8-5.3l-14.8-19.8
				c-1.3-1.7-3.6-2-5.3-0.8c-1.7,1.3-2,3.6-0.8,5.3L119.2,154.7z"/>
			<path class="st0" d="M90.8,141.6l14.8,19.8c0.7,1,1.9,1.5,3,1.5c0.8,0,1.6-0.3,2.3-0.8c1.7-1.3,2-3.6,0.8-5.3L96.9,137
				c-1.3-1.7-3.6-2-5.3-0.8S89.5,139.9,90.8,141.6z"/>
			<path class="st0" d="M97.2,168.8c1.7-1.3,2-3.6,0.8-5.3l-14.8-19.8c-1.3-1.7-3.6-2-5.3-0.8c-1.7,1.3-2,3.6-0.8,5.3L91.9,168
				c0.7,1,1.9,1.5,3,1.5C95.7,169.5,96.5,169.3,97.2,168.8z"/>
			<path class="st0" d="M98.1,435.8c-3.5,0-6.9,1-9.9,2.9c-8.6,5.5-11.1,16.9-5.7,25.5c3.4,5.4,9.2,8.6,15.6,8.6
				c3.5,0,6.9-1,9.9-2.9c8.6-5.5,11.1-16.9,5.7-25.5C110.3,438.9,104.4,435.8,98.1,435.8z M103.9,463.4c-4.9,3.1-11.9,1.6-15-3.3
				c-3.2-5.1-1.7-11.8,3.3-15c1.7-1.1,3.8-1.7,5.8-1.7c3.7,0,7.2,1.9,9.2,5C110.5,453.4,109,460.2,103.9,463.4z"/>
		</g>
		<g>
			<path class="st0" d="M201.4,485.6c8.6,9.2,25.4,13.9,50.1,13.9s41.5-4.7,50.1-13.9c5.8-6.3,5.6-12.4,5.6-12.7V341.5
				c0-1.3-0.5-2.6-1.5-3.6c-7.8-7.8-11.6-15.4-11.4-22.6c0.3-8.6,6.6-14.1,6.6-14.1c1.1-1,1.8-2.4,1.8-3.9v-32.5
				c0-2.8-2.3-5.1-5.1-5.1h-26.7v-139l9.2-25.5c0.3-0.8,0.4-1.7,0.2-2.6l-11.8-67.4c-0.4-2.4-2.5-4.2-5-4.2h-24.2
				c-2.5,0-4.6,1.8-5,4.2l-11.8,67.4c-0.2,0.9-0.1,1.8,0.2,2.6l9.2,25.5v139h-26.7c-2.8,0-5.1,2.3-5.1,5.1v32.5
				c0,1.5,0.7,2.9,1.8,3.9c0.1,0.1,6.2,5.4,6.6,14c0.3,7.2-3.5,14.9-11.3,22.7c-0.9,1-1.5,2.2-1.5,3.6l0,131
				C195.8,473.2,195.5,479.3,201.4,485.6z M231.1,487.9c-3-0.5-5.6-1.1-7.9-1.7V374.4c0-4.7,0-8.7,0.8-11c0.4-1,0.7-1.9,3.6-1.9
				c2.8,0,3.6,1.7,3.6,13.1V487.9z M280.3,486.1c-2.3,0.7-4.9,1.3-7.9,1.8V374.6c0-11.4,0.8-13.1,3.6-13.1c2.4,0,3,0.7,3.5,2.3
				c0.8,2.4,0.8,6.4,0.8,10.8V486.1z M241.8,118.2l-9.1-25.1l10.9-61.8h15.6l10.9,61.8l-9,25.1c-0.2,0.5-0.3,1.1-0.3,1.7v139.9
				h-18.7V119.9C242.1,119.3,242,118.7,241.8,118.2z M205.9,343.6c8.9-9.5,13.2-19.1,12.8-28.8c-0.4-9.7-5.6-16.5-8.4-19.5V270h26.7
				h28.8h26.7v25.3c-2.8,3-8,9.9-8.4,19.5c-0.4,9.7,3.9,19.3,12.8,28.8V473c0,0.1-0.2,5.5-9.1,10.1V374.4c0-4.9,0-9.4-1.2-13
				c-1.7-4.9-5.4-7.5-10.7-7.5c-11.2,0-11.2,11.5-11.2,20.7v114.2c-3.9,0.4-8.3,0.6-13.3,0.6c-4.8,0-8.9-0.2-12.8-0.5V374.6
				c0-9.2,0-20.7-11.2-20.7c-5.5,0-9.1,2.3-10.7,7c-1.2,3.5-1.2,7.9-1.2,13.7v108.8c-9.4-4.6-9.6-10.3-9.6-10.5V343.6z"/>
		</g>
		<g>
			<path class="st0" d="M497.1,21.1l-20.3,0.4c-0.6,0-1.3,0.1-1.8,0.4c-0.1,0-8.6,3.5-18.3,3.5c-8.3,0-15-2.5-19.9-7.3
				c-0.9-0.9-2.2-1.5-3.6-1.5l-39.9,0c-0.6,0-62.1,5.3-77.8,70c-1,4.4-0.5,12,4.1,15.3c1.1,0.8,2.5,1.3,4,1.3
				c5.3,0,10.5-5.4,12.4-7.8c0.1-0.2,14.2-21.4,25.6-30.1c1.6-1.3,7.2-4.9,11.3-4.9c1.3,0,2.8,0.2,4,3.2c3.2,8,6.3,24.7,8.7,38.1
				l0.4,2c0.4,2.3,2.4,4,4.8,4.1v139.4c-5.1,3-8.5,8.1-8.5,14.1l-0.6,215.3c0,10.9,17.4,16.8,26.3,16.8h11c9.1,0,26.9-5.9,26.9-16.8
				l-0.6-215.3c0-6-3.4-11.1-8.5-14.1V107.6c2.1-0.5,3.7-2.1,4-4.2l3.8-30.1c3.5-3,7.4-4.5,11.8-4.5c9.1,0,17.3,6.4,17.3,6.4
				c0.9,0.7,2,1.1,3.1,1.1l20.3,0.4c1.8-0.1,3.6-1,4.5-2.6c0.5-0.9,4.8-9.1,4.8-25.5c0-15.9-4.6-24.5-4.8-24.8
				C500.7,22.1,499,21.1,497.1,21.1z M493.8,66.5l-15.2-0.3c-0.3-0.2-0.6-0.4-0.9-0.6c0.6-3,1.1-7.7,1.1-14.6
				c0-8.2-0.8-15.1-1.5-19.2c0.2-0.1,0.4-0.1,0.6-0.2l16-0.3c1.1,3.1,2.5,8.9,2.5,17.3C496.3,57.4,494.8,63.4,493.8,66.5z
				 M391.8,476.6l0.6-215.3c0-3.7,4-6.7,8.9-6.7h25c4.9,0,8.9,3,8.9,6.7l0.6,215.2c-0.6,2.3-9.9,6.8-16.7,6.8h-11
				C401.2,483.3,392.3,478.8,391.8,476.6z M426.3,244.5h-25c-0.1,0-0.2,0-0.4,0V107.8h25.8v136.7
				C426.5,244.5,426.4,244.5,426.3,244.5z M436.1,67.3c-0.8,0.8-1.3,1.8-1.4,2.9l-3.5,27.5h-36.1c-2.5-14.1-5.4-29.5-8.9-38
				c-2.5-6.1-7.2-9.5-13.4-9.5c-8.3,0-16.6,6.4-17.4,7c-12.7,9.6-27.3,31.6-27.7,32.2c-0.7,0.9-1.7,1.8-2.5,2.4
				c-0.1-1-0.1-2.1,0.1-3c13.9-57.3,66.4-62.1,68.3-62.2h37.5c6.6,5.8,15.2,8.8,25.5,8.8c5,0,9.6-0.7,13.3-1.5
				c0.6,3.9,1.2,10,1.2,17.1c0,4.8-0.3,8.3-0.6,10.8c-4-1.7-8.9-3.1-14.2-3.1C448.7,58.7,441.9,61.6,436.1,67.3z"/>
		</g>
	</g>
</g>
</svg>
